<?xml version="1.0" encoding="utf-8"?>
<!-- Generator: Adobe Illustrator 21.1.0, SVG Export Plug-In . SVG Version: 6.00 Build 0)  -->
<svg version="1.1" id="Layer_1" xmlns="http://www.w3.org/2000/svg" xmlns:xlink="http://www.w3.org/1999/xlink" x="0px" y="0px"
	 viewBox="0 0 88.7 91" style="enable-background:new 0 0 88.7 91;" xml:space="preserve">
<style type="text/css">
	.st0{fill:#FFFFFF;}
</style>
<title>79 all</title>
<path class="st0" d="M81.7,73.6c-3.2,0-6,2.3-6.8,5.4H55.2c-0.7-4.6-4.3-8.2-8.9-8.9v-8.7c10.4-0.3,21-3.4,21-9.1V9.1
	C67.3,3.2,55.7,0,44.8,0S22.3,3.2,22.3,9.1v43.3c0,5.6,10.6,8.8,21,9.1v8.7c-4.6,0.7-8.2,4.3-8.9,8.9H13.7c-0.8-3.7-4.5-6.1-8.3-5.3
	c-3.7,0.8-6.1,4.5-5.3,8.3s4.5,6.1,8.3,5.3c2.6-0.6,4.7-2.6,5.3-5.3h20.8c0.8,5.7,6.2,9.7,11.9,8.9c4.6-0.7,8.2-4.3,8.9-8.9H75
	c0.8,3.7,4.5,6.1,8.3,5.3c3.7-0.8,6.1-4.5,5.3-8.3C87.8,75.8,85,73.6,81.7,73.6L81.7,73.6z M6.9,84.4c-2.2,0-3.9-1.8-3.9-3.9
	s1.8-3.9,3.9-3.9s3.9,1.8,3.9,3.9l0,0C10.8,82.7,9.1,84.4,6.9,84.4z M44.8,3c12.1,0,19.5,3.6,19.5,6.1s-7.4,6.1-19.5,6.1
	s-19.5-3.6-19.5-6.1S32.8,3,44.8,3z M25.3,13.8c4.2,2.9,12,4.4,19.5,4.4s15.3-1.5,19.5-4.4v9.7c0,2.5-7.4,6.1-19.5,6.1
	S25.3,26,25.3,23.5V13.8z M25.3,28.2c4.2,2.9,12,4.4,19.5,4.4s15.3-1.5,19.5-4.4v9.7c0,2.5-7.4,6.1-19.5,6.1s-19.5-3.5-19.5-6.1
	V28.2z M25.3,52.4v-9.8c4.2,2.9,12,4.4,19.5,4.4s15.3-1.5,19.5-4.4v9.8c0,2.5-7.4,6.1-19.5,6.1S25.3,54.9,25.3,52.4L25.3,52.4z
	 M44.8,88c-4.1,0-7.5-3.4-7.5-7.5s3.4-7.5,7.5-7.5s7.5,3.4,7.5,7.5l0,0C52.3,84.6,49,88,44.8,88z M81.7,84.4c-2.2,0-3.9-1.8-3.9-3.9
	c0-2.2,1.8-3.9,3.9-3.9c2.2,0,3.9,1.8,3.9,3.9c0,0,0,0,0,0C85.7,82.7,83.9,84.4,81.7,84.4z"/>
</svg>
